<svg height="2350" width="720" xmlns="http://www.w3.org/2000/svg">
<rect height="2350" fill="#555" width="720"></rect>
<text fill="#7f7" font-family="Courier New" font-size="12" xml:space="preserve">
<tspan x="10" y="26"></tspan>
<tspan x="10" y="42">&gt; npmdoc-grunt-contrib-concat@0.0.2 test /home/travis/build/npmdoc/node-npmdoc-grunt-contrib-con\</tspan>
<tspan x="10" y="58">cat</tspan>
<tspan x="10" y="74">&gt; (set -e; export PORT=$(utility2 shServerPortRandom); utility2 test test.js)</tspan>
<tspan x="10" y="90"></tspan>
<tspan x="10" y="106"></tspan>
<tspan x="10" y="122">[MODE_BUILD=npmTest] - 2017-03-25T12:51:04Z - npm-testing /home/travis/build/npmdoc/node-npmdoc-\</tspan>
<tspan x="10" y="138">grunt-contrib-concat</tspan>
<tspan x="10" y="154"></tspan>
<tspan x="10" y="170"></tspan>
<tspan x="10" y="186">covering $ /home/travis/.nvm/versions/node/v7.7.4/bin/node /home/travis/build/npmdoc/node-npmdoc\</tspan>
<tspan x="10" y="202">-grunt-contrib-concat/test.js</tspan>
<tspan x="10" y="218">merging file:///home/travis/build/npmdoc/node-npmdoc-grunt-contrib-concat/tmp/build/test-report.\</tspan>
<tspan x="10" y="234">json to test-report</tspan>
<tspan x="10" y="250">&gt; server listening on http-port 52414</tspan>
<tspan x="10" y="266">created apidoc file:///home/travis/build/npmdoc/node-npmdoc-grunt-contrib-concat/tmp/build/apido\</tspan>
<tspan x="10" y="282">c.html</tspan>
<tspan x="10" y="298"></tspan>
<tspan x="10" y="314"></tspan>
<tspan x="10" y="330">browserTest - created electron entry-page /home/travis/build/npmdoc/node-npmdoc-grunt-contrib-co\</tspan>
<tspan x="10" y="346">ncat/tmp/electron.15b058529de0.39d7fd2e48866.html</tspan>
<tspan x="10" y="362"></tspan>
<tspan x="10" y="378">[node test-case 1 of 6 passed] - testCase_buildLib_default</tspan>
<tspan x="10" y="394">[node test-case 2 of 6 passed] - testCase_buildReadme_default</tspan>
<tspan x="10" y="410">[node test-case 3 of 6 passed] - testCase_buildTest_default</tspan>
<tspan x="10" y="426"></tspan>
<tspan x="10" y="442">browserTest - created electron entry-page /home/travis/build/npmdoc/node-npmdoc-grunt-contrib-co\</tspan>
<tspan x="10" y="458">ncat/tmp/electron.15b05852a250.03d69e48206b3.html</tspan>
<tspan x="10" y="474"></tspan>
<tspan x="10" y="490">(node:4918) DeprecationWarning: node --debug is deprecated. Please use node --inspect instead.</tspan>
<tspan x="10" y="506">Xlib:  extension "RANDR" missing on display ":99.0".</tspan>
<tspan x="10" y="522">Xlib:  extension "RANDR" missing on display ":99.0".</tspan>
<tspan x="10" y="538">&gt; server listening on http-port 41349</tspan>
<tspan x="10" y="554"></tspan>
<tspan x="10" y="570">/home/travis/build/npmdoc/node-npmdoc-grunt-contrib-concat/node_modules/utility2/lib.utility2.sh\</tspan>
<tspan x="10" y="586">.html.js</tspan>
<tspan x="10" y="602"> #1 Line too long.</tspan>
<tspan x="10" y="618">    process.stdout.write('export npm_package_' + key.replace((/\W/g), '_') + '=' + JSON.stringif\</tspan>
<tspan x="10" y="634">y(value) + ';'); // Line 1445, Pos 116</tspan>
<tspan x="10" y="650"></tspan>
<tspan x="10" y="666">merging file:///home/travis/build/npmdoc/node-npmdoc-grunt-contrib-concat/tmp/build/test-report.\</tspan>
<tspan x="10" y="682">json to test-report</tspan>
<tspan x="10" y="698">Xlib:  extension "RANDR" missing on display ":99.0".</tspan>
<tspan x="10" y="714">[4949:0325/125105:WARNING:audio_manager.cc(314)] Multiple instances of AudioManager detected</tspan>
<tspan x="10" y="730">[4949:0325/125105:WARNING:audio_manager.cc(275)] Multiple instances of AudioManager detected</tspan>
<tspan x="10" y="746">[4974:0325/125105:ERROR:sandbox_linux.cc(343)] InitializeSandbox() called with multiple threads \</tspan>
<tspan x="10" y="762">in process gpu-process. </tspan>
<tspan x="10" y="778"></tspan>
<tspan x="10" y="794">/home/travis/build/npmdoc/node-npmdoc-grunt-contrib-concat/node_modules/utility2/lib.utility2.sh\</tspan>
<tspan x="10" y="810">.html.js</tspan>
<tspan x="10" y="826"> #1 Line too long.</tspan>
<tspan x="10" y="842">    process.stdout.write('export npm_package_' + key.replace((/\W/g), '_') + '=' + JSON.stringif\</tspan>
<tspan x="10" y="858">y(value) + ';'); // Line 1445, Pos 116</tspan>
<tspan x="10" y="874"></tspan>
<tspan x="10" y="890">merging file:///home/travis/build/npmdoc/node-npmdoc-grunt-contrib-concat/tmp/build/test-report.\</tspan>
<tspan x="10" y="906">json to test-report</tspan>
<tspan x="10" y="922">Xlib:  extension "RANDR" missing on display ":99.0".</tspan>
<tspan x="10" y="938">[4949:0325/125106:ERROR:browser_gpu_channel_host_factory.cc(131)] Failed to create channel.</tspan>
<tspan x="10" y="954">[4953:0325/125106:WARNING:audio_manager.cc(314)] Multiple instances of AudioManager detected</tspan>
<tspan x="10" y="970">[4953:0325/125106:WARNING:audio_manager.cc(275)] Multiple instances of AudioManager detected</tspan>
<tspan x="10" y="986">[5005:0325/125106:ERROR:sandbox_linux.cc(343)] InitializeSandbox() called with multiple threads \</tspan>
<tspan x="10" y="1002">in process gpu-process. </tspan>
<tspan x="10" y="1018">[4953:0325/125106:ERROR:browser_gpu_channel_host_factory.cc(131)] Failed to create channel.</tspan>
<tspan x="10" y="1034"></tspan>
<tspan x="10" y="1050">browserTest - opened url file:///home/travis/build/npmdoc/node-npmdoc-grunt-contrib-concat/tmp/b\</tspan>
<tspan x="10" y="1066">uild/apidoc.html</tspan>
<tspan x="10" y="1082"></tspan>
<tspan x="10" y="1098"></tspan>
<tspan x="10" y="1114">browserTest - opened url http://127.0.0.1:52414?modeTest=1</tspan>
<tspan x="10" y="1130"></tspan>
<tspan x="10" y="1146">[4953:0325/125108:INFO:CONSOLE(203)] "----------|-----------|-----------|-----------|-----------\</tspan>
<tspan x="10" y="1162">|</tspan>
<tspan x="10" y="1178">File      |   % Stmts |% Branches |   % Funcs |   % Lines |</tspan>
<tspan x="10" y="1194">----------|-----------|-----------|-----------|-----------|</tspan>
<tspan x="10" y="1210">----------|-----------|-----------|-----------|-----------|</tspan>
<tspan x="10" y="1226">All files |       100 |       100 |       100 |       100 |</tspan>
<tspan x="10" y="1242">----------|-----------|-----------|-----------|-----------|</tspan>
<tspan x="10" y="1258">", source: file:///home/travis/build/npmdoc/node-npmdoc-grunt-contrib-concat/tmp/electron.15b058\</tspan>
<tspan x="10" y="1274">52a250.03d69e48206b3.html (203)</tspan>
<tspan x="10" y="1290">[4953:0325/125108:INFO:CONSOLE(203)] "created coverage file:///tmp/build/coverage.html/index.htm\</tspan>
<tspan x="10" y="1306">l", source: file:///home/travis/build/npmdoc/node-npmdoc-grunt-contrib-concat/tmp/electron.15b05\</tspan>
<tspan x="10" y="1322">852a250.03d69e48206b3.html (203)</tspan>
<tspan x="10" y="1338">[node test-case 4 of 6 passed] - testCase_buildApp_default</tspan>
<tspan x="10" y="1354"></tspan>
<tspan x="10" y="1370">browserTest - created screen-capture file:///home/travis/build/npmdoc/node-npmdoc-grunt-contrib-\</tspan>
<tspan x="10" y="1386">concat/tmp/build/screen-capture.npmTest.browser._2Fhome_2Ftravis_2Fbuild_2Fnpmdoc_2Fnode-npmdoc-\</tspan>
<tspan x="10" y="1402">grunt-contrib-concat_2Ftmp_2Fbuild_2Fapidoc.html.png</tspan>
<tspan x="10" y="1418"></tspan>
<tspan x="10" y="1434"></tspan>
<tspan x="10" y="1450">browserTest - exit-code 0 - file:///home/travis/build/npmdoc/node-npmdoc-grunt-contrib-concat/tm\</tspan>
<tspan x="10" y="1466">p/build/apidoc.html</tspan>
<tspan x="10" y="1482"></tspan>
<tspan x="10" y="1498">[node test-case 5 of 6 passed] - testCase_buildApidoc_default</tspan>
<tspan x="10" y="1514"></tspan>
<tspan x="10" y="1530">browserTest - created screen-capture file:///home/travis/build/npmdoc/node-npmdoc-grunt-contrib-\</tspan>
<tspan x="10" y="1546">concat/tmp/build/screen-capture.npmTest.browser..png</tspan>
<tspan x="10" y="1562"></tspan>
<tspan x="10" y="1578"></tspan>
<tspan x="10" y="1594">browserTest - exit-code 0 - http://127.0.0.1:52414?modeTest=1</tspan>
<tspan x="10" y="1610"></tspan>
<tspan x="10" y="1626"></tspan>
<tspan x="10" y="1642">browserTest - merged coverage from /home/travis/build/npmdoc/node-npmdoc-grunt-contrib-concat/tm\</tspan>
<tspan x="10" y="1658">p/coverage.npmTest.browser.%2F.json</tspan>
<tspan x="10" y="1674"></tspan>
<tspan x="10" y="1690"></tspan>
<tspan x="10" y="1706">browserTest - merging test-report from /home/travis/build/npmdoc/node-npmdoc-grunt-contrib-conca\</tspan>
<tspan x="10" y="1722">t/tmp/test-report.npmTest.browser.%2F.json</tspan>
<tspan x="10" y="1738"></tspan>
<tspan x="10" y="1754">[node test-case 6 of 6 passed] - testCase_webpage_default</tspan>
<tspan x="10" y="1770">-----------------------------------------|-----------|-----------|-----------|-----------|</tspan>
<tspan x="10" y="1786">File                                     |   % Stmts |% Branches |   % Funcs |   % Lines |</tspan>
<tspan x="10" y="1802">-----------------------------------------|-----------|-----------|-----------|-----------|</tspan>
<tspan x="10" y="1818">   node-npmdoc-grunt-contrib-concat/     |       100 |       100 |       100 |       100 |</tspan>
<tspan x="10" y="1834">      example.js                         |       100 |       100 |       100 |       100 |</tspan>
<tspan x="10" y="1850">      lib.npmdoc_grunt_contrib_concat.js |       100 |       100 |       100 |       100 |</tspan>
<tspan x="10" y="1866">      test.js                            |       100 |       100 |       100 |       100 |</tspan>
<tspan x="10" y="1882">-----------------------------------------|-----------|-----------|-----------|-----------|</tspan>
<tspan x="10" y="1898">All files                                |       100 |       100 |       100 |       100 |</tspan>
<tspan x="10" y="1914">-----------------------------------------|-----------|-----------|-----------|-----------|</tspan>
<tspan x="10" y="1930"></tspan>
<tspan x="10" y="1946">created coverage file:///home/travis/build/npmdoc/node-npmdoc-grunt-contrib-concat/tmp/build/cov\</tspan>
<tspan x="10" y="1962">erage.html/index.html</tspan>
<tspan x="10" y="1978"></tspan>
<tspan x="10" y="1994">/home/travis/build/npmdoc/node-npmdoc-grunt-contrib-concat/node_modules/utility2/lib.utility2.sh\</tspan>
<tspan x="10" y="2010">.html.js</tspan>
<tspan x="10" y="2026"> #1 Line too long.</tspan>
<tspan x="10" y="2042">    process.stdout.write('export npm_package_' + key.replace((/\W/g), '_') + '=' + JSON.stringif\</tspan>
<tspan x="10" y="2058">y(value) + ';'); // Line 1445, Pos 116</tspan>
<tspan x="10" y="2074"></tspan>
<tspan x="10" y="2090">merging file:///home/travis/build/npmdoc/node-npmdoc-grunt-contrib-concat/tmp/build/test-report.\</tspan>
<tspan x="10" y="2106">json to test-report</tspan>
<tspan x="10" y="2122"></tspan>
<tspan x="10" y="2138">-------------------------------------------------------</tspan>
<tspan x="10" y="2154">| test-report - buildNpmdoc - node - linux v7.7.4 - 2017-03-25T12:50:54.366Z</tspan>
<tspan x="10" y="2170">|   16269 ms            0 failed        6 passed      |</tspan>
<tspan x="10" y="2186">-------------------------------------------------------</tspan>
<tspan x="10" y="2202"></tspan>
<tspan x="10" y="2218">created test-report file:///home/travis/build/npmdoc/node-npmdoc-grunt-contrib-concat/tmp/build/\</tspan>
<tspan x="10" y="2234">test-report.html</tspan>
<tspan x="10" y="2250"></tspan>
<tspan x="10" y="2266"></tspan>
<tspan x="10" y="2282">npmTest - 0 failed tests</tspan>
<tspan x="10" y="2298"></tspan>
<tspan x="10" y="2314"></tspan>
<tspan x="10" y="2330">[MODE_BUILD=npmTest] - 2017-03-25T12:51:13Z - EXIT_CODE - 0</tspan>
</text>
</svg>
